<svg fill="none" height="40" viewBox="0 0 194 40" width="194" xmlns="http://www.w3.org/2000/svg" xmlns:xlink="http://www.w3.org/1999/xlink"><mask id="a" height="41" maskUnits="userSpaceOnUse" width="194" x="0" y="-1"><path d="m33.6541 22.4365c0 9.2933-7.5333 16.8267-16.8275 16.8267-9.29248 0-16.82669918-7.5334-16.82669918-16.8267v-21.874669h8.41332918v21.874669c0 4.6471 3.76797 8.4124 8.41337 8.4124 4.6471 0 8.4142-3.7653 8.4142-8.4124v-21.874669h8.4133zm25.964 16.2656h-21.6933-.0649.0649l1.3635-7.8524 20.0418.0008c2.0827 0 3.7707-1.6871 3.7707-3.7697 0-2.0827-1.688-3.7707-3.7707-3.7707l-10.0933.0027c-6.2818 0-11.3769-5.0925-11.3769-11.376 0-6.28181 5.0951-11.375147 11.3769-11.375147h17.2684l1.3636 7.852447h-18.3511c-1.792 0-3.2436 1.45155-3.2436 3.2436 0 1.7911 1.4516 3.2435 3.2436 3.2435l10.1004-.0018c6.5734 0 11.9014 5.328 11.9014 11.9014 0 6.5715-5.328 11.9013-11.9014 11.9013zm110.8959-38.70231362c-9.295 0-16.828 7.53422362-16.828 16.82751362v21.8747h8.413v-21.8747c0-4.6471 3.767-8.41329 8.415-8.41329 4.646 0 8.412 3.76619 8.412 8.41329v6.52h-14.452l1.266 7.2916h13.186v8.0631h8.414v-21.8747c0-9.29329-7.534-16.82751362-16.826-16.82751362zm-78.5267 0c-9.2934 0-16.8267 7.53422362-16.8267 16.82751362v21.8747h8.4133v-21.8747c0-4.6471 3.7663-8.41329 8.4134-8.41329 4.6462 0 8.4137 3.76619 8.4137 8.41329v6.52h-14.4519l1.2657 7.2916h13.1862v8.0631h8.413v-21.8747c0-9.29329-7.533-16.82751362-16.8267-16.82751362zm99.5667 36.54301362c.273 0 .513-.0267.513-.3475 0-.2667-.261-.2996-.481-.2996h-.438v.6471zm-.406 1.256h-.363v-2.2124h.839c.535 0 .807.1866.807.6364 0 .4-.246.5653-.577.6036l.619.9724h-.411l-.572-.9458h-.342zm.396-2.7947c-.866 0-1.539.6783-1.539 1.6507 0 .9085.588 1.6516 1.539 1.6516.855 0 1.529-.6729 1.529-1.6516 0-.9724-.674-1.6507-1.529-1.6507zm0 3.6498c-1.15 0-1.967-.8604-1.967-1.9991 0-1.2027.909-1.9991 1.967-1.9991 1.047 0 1.955.7964 1.955 1.9991s-.908 1.9991-1.955 1.9991zm-43.467.0482h-8.413v-21.8747c0-4.6471-3.767-8.4133-8.414-8.4133-4.646 0-8.413 3.7662-8.413 8.4133v21.8747h-8.413v-21.8747c0-9.2933 7.533-16.82752473 16.826-16.82752473 9.294 0 16.827 7.53422473 16.827 16.82752473z" fill="#fff"/></mask><g mask="url(#a)"><path d="m193.778-.00001335h-193.778v51.55551335h193.778z" fill="#fff"/></g></svg>